<svg width="53" height="53" viewBox="0 0 53 53" fill="none" xmlns="http://www.w3.org/2000/svg">
<rect width="53" height="53" rx="10" fill="#E7D9D0"/>
<g clip-path="url(#clip0_2213_337)">
<path fill-rule="evenodd" clip-rule="evenodd" d="M23.8124 15.8129C28.6034 15.3434 32.4611 19.4016 32.8263 24.14C33.2318 29.3703 29.5907 33.6136 25.2566 34.0229C20.3643 34.4833 16.4787 30.4552 16.1593 25.6086C15.8094 20.3661 19.4102 16.2387 23.8124 15.8114V15.8129ZM33.6068 31.5371C35.0594 29.5088 35.8384 25.765 35.2482 22.6067C33.5471 13.4866 23.4374 9.50965 16.7259 16.4494C10.8615 22.5149 13.3653 34.7467 22.3793 36.6802C23.8638 36.9992 25.533 36.9511 26.9494 36.602C29.1102 36.0723 29.4532 35.4087 30.5281 34.9859C31.5196 35.5893 35.4649 40.5082 36.1884 41.0123C37.184 41.6969 38.3922 41.2831 38.9324 40.603C41.2071 37.738 35.2357 34.2652 33.6068 31.5341V31.5371Z" fill="#281D0B"/>
</g>
<defs>
<clipPath id="clip0_2213_337">
<rect width="25.8837" height="28.439" fill="white" transform="translate(13.5581 12.9268)"/>
</clipPath>
</defs>
</svg>
