<svg width="22" height="10" viewBox="0 0 22 10" fill="none" xmlns="http://www.w3.org/2000/svg">
<path fill-rule="evenodd" clip-rule="evenodd" d="M21.2611 0C21.5432 0 21.7362 0.284272 21.621 0.541795C20.7121 2.57319 19.3383 4.21378 17.4991 5.46289C15.4991 6.82122 13.2821 7.5 10.8487 7.5C8.41542 7.49998 6.1983 6.82121 4.19833 5.46289C2.32339 4.18945 0.931702 2.50925 0.0235231 0.422852C-0.0597466 0.221423 0.0883152 0 0.306277 0H1.8006C1.95268 0 2.09108 0.086634 2.16167 0.221338C2.98948 1.80098 4.1559 3.0649 5.66122 4.0127C7.23619 5.00434 8.96543 5.49998 10.8487 5.5C12.732 5.5 14.4613 5.0043 16.0362 4.0127C17.5415 3.06491 18.708 1.80095 19.5358 0.221335C19.6064 0.0866326 19.7448 0 19.8968 0H21.2611Z" fill="#976D4E"/>
<path d="M2.89304 4.04695L1.46369 5.32621" stroke="#976D4E" stroke-linecap="round" stroke-linejoin="bevel"/>
<path d="M6.82293 6.91494L6.21659 8.1596" stroke="#976D4E" stroke-linecap="round" stroke-linejoin="bevel"/>
<path d="M11.8105 7.0026L12.001 8.99677" stroke="#976D4E" stroke-linecap="round" stroke-linejoin="bevel"/>
<path d="M15.7867 6.05868L16.8725 7.7883" stroke="#976D4E" stroke-linecap="round" stroke-linejoin="bevel"/>
<path d="M19.6268 3.35887L21.1788 4.50764" stroke="#976D4E" stroke-linecap="round" stroke-linejoin="bevel"/>
</svg>
